<svg width="43" height="43" viewBox="0 0 43 43" fill="none" xmlns="http://www.w3.org/2000/svg">
    <path d="M41.952 1.04802C43.3493 2.44538 43.3493 4.71095 41.952 6.10831L26.5603 21.5L41.952 36.8917C43.3493 38.2891 43.3493 40.5546 41.952 41.952C40.5546 43.3493 38.2891 43.3493 36.8917 41.952L21.5 26.5603L6.1083 41.952C4.71094 43.3493 2.44538 43.3493 1.04802 41.952C-0.349342 40.5546 -0.349337 38.2891 1.04802 36.8917L16.4397 21.5L1.04804 6.10831C-0.34932 4.71095 -0.349325 2.44538 1.04803 1.04802C2.44539 -0.34934 4.71096 -0.34934 6.10832 1.04802L21.5 16.4397L36.8917 1.04802C38.289 -0.34934 40.5546 -0.34934 41.952 1.04802Z"
          fill="#BBA07D"/>
</svg>
