<svg width="37" height="27" viewBox="0 0 37 27" fill="none" xmlns="http://www.w3.org/2000/svg">
    <path fill-rule="evenodd" clip-rule="evenodd"
          d="M0 5C0 2.23858 2.23858 0 5 0H32C34.7614 0 37 2.23858 37 5V22C37 24.7614 34.7614 27 32 27H5C2.23858 27 0 24.7614 0 22V5ZM31.7402 3H5.40049L16.5824 12.8664C17.9357 14.0605 19.9751 14.0297 21.2918 12.7953L31.7402 3ZM3.00322 4.88562C3.00108 4.92348 3 4.96161 3 5V22C3 23.1046 3.89543 24 5 24H32C33.1046 24 34 23.1046 34 22V5C34 4.99787 34 4.99574 34 4.99361L23.3437 14.9839C20.8984 17.2764 17.1108 17.3335 14.5975 15.1159L3.00322 4.88562Z"
          fill="#BBA07D"/>
</svg>
