<svg width="37" height="37" viewBox="0 0 37 37" fill="none" xmlns="http://www.w3.org/2000/svg">
    <path fill-rule="evenodd" clip-rule="evenodd"
          d="M5 0C2.23858 0 0 2.23858 0 5V32C0 34.7614 2.23858 37 5 37H32C34.7614 37 37 34.7614 37 32V5C37 2.23858 34.7614 0 32 0H5ZM32 3H5C3.89543 3 3 3.89543 3 5V32C3 33.1046 3.89543 34 5 34H20V22H16V18H20V13C20 10.2386 22.2386 8 25 8H29V12H27C25.3431 12 24 13.3431 24 15V18H29V22H24V34H32C33.1046 34 34 33.1046 34 32V5C34 3.89543 33.1046 3 32 3Z"
          fill="#BBA07D"/>
</svg>
