<svg width="37" height="37" viewBox="0 0 37 37" fill="none" xmlns="http://www.w3.org/2000/svg">
    <path fill-rule="evenodd" clip-rule="evenodd"
          d="M18 27.9999C22.9706 27.9999 27 23.9704 27 18.9999C27 14.0293 22.9706 9.99985 18 9.99985C13.0294 9.99985 9 14.0293 9 18.9999C9 23.9704 13.0294 27.9999 18 27.9999ZM18 24.9999C21.3137 24.9999 24 22.3136 24 18.9999C24 15.6861 21.3137 12.9999 18 12.9999C14.6863 12.9999 12 15.6861 12 18.9999C12 22.3136 14.6863 24.9999 18 24.9999Z"
          fill="#BBA07D"/>
    <path d="M28.5 11C29.8807 11 31 9.88071 31 8.5C31 7.11929 29.8807 6 28.5 6C27.1193 6 26 7.11929 26 8.5C26 9.88071 27.1193 11 28.5 11Z"
          fill="#BBA07D"/>
    <path fill-rule="evenodd" clip-rule="evenodd"
          d="M5 0C2.23858 0 0 2.23858 0 5V32C0 34.7614 2.23858 37 5 37H32C34.7614 37 37 34.7614 37 32V5C37 2.23858 34.7614 0 32 0H5ZM32 3H5C3.89543 3 3 3.89543 3 5V32C3 33.1046 3.89543 34 5 34H32C33.1046 34 34 33.1046 34 32V5C34 3.89543 33.1046 3 32 3Z"
          fill="#BBA07D"/>
</svg>
