<svg version="1.0" xmlns="http://www.w3.org/2000/svg"
     width="315px" height="147px" viewBox="0 0 1509.000000 710.000000"
     preserveAspectRatio="xMidYMid meet">
    <g transform="translate(0.000000,710.000000) scale(0.100000,-0.100000)"
       fill="#ffff" stroke="none">
        <path d="M11354 6999 c-3 -6 3 -13 15 -16 25 -6 25 -7 5 -198 -21 -203 -19
-195 -54 -195 -35 0 -40 -17 -7 -25 43 -9 126 -10 129 -1 2 6 -12 14 -30 18
-26 7 -31 13 -28 31 3 12 8 53 11 91 l7 68 71 -6 c40 -4 88 -10 107 -13 l36
-5 -8 -66 c-4 -37 -7 -77 -7 -89 -1 -19 -7 -23 -30 -23 -27 0 -49 -15 -39 -25
2 -3 37 -8 77 -11 61 -6 73 -5 69 7 -2 8 -14 15 -26 17 -26 4 -26 -1 -6 187
19 190 20 192 44 198 50 13 1 37 -76 37 -24 0 -34 -5 -34 -15 0 -10 10 -15 31
-15 28 0 30 -2 25 -27 -2 -16 -8 -54 -11 -87 l-7 -58 -41 6 c-23 3 -70 8 -104
12 -71 7 -68 2 -57 113 l7 61 33 0 c33 0 47 17 22 24 -35 11 -118 14 -124 5z"/>
        <path d="M10795 6994 c-16 -2 -49 -7 -73 -10 -49 -6 -53 -29 -6 -29 l29 0 17
-175 c9 -96 17 -183 17 -192 1 -13 -7 -18 -29 -18 -21 0 -30 -5 -30 -16 0 -14
10 -15 78 -10 113 10 142 17 142 32 0 10 -14 12 -63 7 l-64 -6 -6 39 c-4 22
-7 56 -7 76 l0 37 58 6 c86 10 118 23 152 61 44 51 43 110 -4 161 -33 36 -36
38 -108 39 -40 1 -86 0 -103 -2z m165 -39 c71 -37 66 -131 -8 -169 -15 -7 -57
-17 -94 -21 l-68 -7 -1 29 c0 15 -3 60 -7 100 -8 72 -8 72 18 76 61 10 133 6
160 -8z"/>
        <path d="M12060 6881 c0 -5 24 -17 53 -26 67 -22 71 -27 59 -67 -6 -18 -32
-99 -57 -180 l-46 -147 -56 20 c-67 23 -73 23 -73 5 0 -9 45 -28 129 -55 143
-45 151 -47 151 -28 0 8 -26 22 -60 32 -53 16 -60 21 -54 39 20 68 107 342
110 345 1 1 26 -5 54 -14 45 -15 93 -14 77 2 -11 10 -241 83 -264 83 -13 0
-23 -4 -23 -9z"/>
        <path d="M10096 6837 c-74 -24 -107 -55 -45 -44 19 3 45 9 58 13 l24 7 -7
-154 c-10 -223 -14 -256 -37 -262 -24 -6 -25 -27 -1 -27 34 0 143 42 139 54
-5 12 -5 12 -56 1 l-34 -7 8 58 c3 33 10 62 13 66 8 7 172 58 188 58 10 0 74
-78 74 -91 0 -4 -16 -13 -35 -19 -19 -6 -35 -16 -35 -21 0 -13 38 -10 99 9 61
19 79 42 34 42 -24 0 -45 21 -161 170 -73 94 -138 170 -145 169 -7 0 -43 -11
-81 -22z m182 -139 l52 -67 -80 -26 c-45 -14 -86 -25 -91 -25 -10 0 -3 206 7
240 4 10 13 5 32 -20 15 -19 51 -65 80 -102z"/>
        <path d="M9525 6594 c-146 -76 -177 -96 -166 -107 9 -9 17 -8 32 1 11 7 24 10
28 7 5 -2 48 -78 96 -166 66 -125 83 -164 73 -171 -7 -5 -19 -12 -27 -17 -8
-5 -11 -13 -7 -20 7 -11 138 48 151 69 13 21 -5 24 -39 7 -39 -18 -40 -18 -90
80 l-26 53 50 25 c64 33 97 28 205 -30 66 -35 84 -40 103 -32 32 15 29 41 -4
33 -18 -5 -41 2 -82 26 -31 18 -76 37 -100 43 l-43 11 22 27 c26 34 36 96 19
126 -16 32 -69 61 -110 61 -19 0 -58 -12 -85 -26z m134 -19 c76 -39 41 -134
-70 -191 -27 -13 -51 -24 -54 -24 -6 0 -79 141 -80 153 0 13 127 77 153 77 13
0 36 -7 51 -15z"/>
        <path d="M12720 6601 c-76 -24 -115 -61 -160 -151 -65 -129 4 -280 140 -303
38 -7 106 5 123 22 19 19 -1 23 -56 10 -52 -11 -59 -10 -104 12 -56 28 -89 73
-98 134 -6 35 -2 55 20 103 44 98 129 161 199 147 79 -17 144 -94 131 -155
-11 -49 13 -43 44 12 30 52 28 85 -2 59 -12 -9 -19 -5 -35 23 -39 66 -137 108
-202 87z"/>
        <path d="M9075 6310 c-3 -5 -4 -14 -1 -19 3 -5 -9 -12 -28 -15 -48 -9 -112
-59 -136 -105 -25 -50 -26 -123 -1 -176 22 -49 94 -131 130 -149 68 -34 145
-27 213 21 41 28 98 104 98 131 0 8 -18 36 -41 63 -33 39 -39 52 -30 63 9 10
9 16 1 21 -11 7 -150 -100 -150 -116 0 -22 22 -15 66 21 26 22 49 38 50 37 68
-76 74 -88 60 -116 -23 -44 -91 -99 -138 -111 -62 -17 -112 1 -167 59 -75 79
-100 165 -67 230 36 68 134 120 177 92 45 -28 51 -5 12 45 -30 36 -38 40 -48
24z"/>
        <path d="M13602 5678 c-7 -10 16 -47 90 -141 83 -105 103 -126 115 -116 7 7
12 18 9 25 -8 20 -187 244 -196 244 -4 0 -12 -6 -18 -12z"/>
        <path d="M13852 5348 c-7 -10 12 -50 72 -150 74 -123 85 -136 100 -125 16 12
10 24 -64 150 -44 75 -85 137 -89 137 -5 0 -13 -6 -19 -12z"/>
        <path d="M14051 5001 c-11 -7 -2 -36 49 -153 35 -78 64 -145 66 -147 2 -2 12
0 23 5 18 8 15 18 -46 157 -36 81 -68 147 -72 147 -3 0 -12 -4 -20 -9z"/>
        <path d="M10214 4826 c-56 -41 -190 -174 -210 -207 -7 -11 -48 -20 -164 -33
-222 -26 -439 -62 -456 -76 -19 -17 -18 -57 4 -68 44 -24 98 -23 173 2 62 20
182 41 488 82 l44 6 -30 -54 c-63 -111 -344 -656 -369 -714 l-26 -61 -142 -16
c-77 -9 -172 -19 -209 -23 -91 -9 -121 -39 -77 -79 22 -20 53 -18 170 9 36 8
100 18 143 22 l77 7 -36 -79 c-20 -43 -65 -151 -99 -239 -225 -572 -272 -966
-142 -1188 77 -132 253 -213 384 -178 87 24 164 108 133 145 -21 27 -54 18
-95 -25 -62 -65 -91 -73 -167 -49 -77 24 -153 80 -190 141 -16 24 -40 92 -55
149 l-26 105 17 135 c9 74 29 187 46 250 38 150 144 460 215 630 32 74 64 151
72 172 9 21 24 39 36 42 12 3 156 11 321 17 230 9 327 9 421 0 138 -13 157
-10 153 27 -2 19 -11 28 -33 35 -50 15 -517 21 -679 8 -82 -6 -151 -10 -153
-7 -11 11 111 244 314 602 l125 222 52 5 c28 4 150 12 271 18 250 13 1142 7
1169 -8 14 -8 11 -13 -21 -34 -47 -30 -55 -64 -19 -80 22 -10 34 -8 89 19 83
41 117 73 117 110 0 23 -6 32 -27 41 -57 23 -1112 40 -1446 23 -70 -4 -127 -5
-127 -2 0 3 23 43 50 90 54 92 61 123 31 140 -34 18 -57 11 -117 -34z"/>
        <path d="M12433 4770 c-179 -103 -452 -450 -765 -975 -148 -249 -178 -306
-274 -530 l-73 -170 -63 -48 c-131 -99 -284 -153 -318 -113 -10 13 -11 26 -4
54 7 30 14 38 36 40 34 4 40 12 73 96 31 77 27 99 -18 104 -32 4 -75 -39 -126
-124 -58 -94 -59 -171 -3 -214 23 -19 37 -21 97 -18 55 3 86 11 148 41 43 20
92 46 108 58 17 12 32 19 34 17 3 -2 -1 -43 -7 -91 -9 -64 -9 -105 -1 -158 15
-94 45 -139 120 -176 54 -26 65 -28 178 -27 144 1 255 20 633 110 1146 271
1801 376 2433 391 226 5 260 4 289 -11 58 -29 98 -18 85 23 -11 37 -59 46
-241 44 -573 -5 -1510 -150 -2604 -402 -371 -86 -470 -103 -580 -105 -157 -2
-211 44 -218 188 -4 87 6 140 60 302 27 82 33 92 57 97 72 15 295 257 553 602
210 281 349 496 448 695 90 178 110 270 70 310 -28 28 -66 25 -127 -10z m27
-151 c-86 -220 -325 -583 -656 -994 -139 -174 -288 -331 -278 -295 10 41 136
299 204 416 84 147 249 396 362 545 134 179 375 423 386 391 1 -5 -7 -34 -18
-63z"/>
        <path d="M14204 4634 c-13 -6 75 -306 91 -311 6 -1 16 1 22 5 9 6 1 46 -34
160 -26 84 -52 152 -58 151 -5 0 -15 -3 -21 -5z"/>
        <path d="M5544 4549 c-390 -292 -766 -666 -1358 -1354 -393 -457 -550 -616
-654 -667 -92 -44 -184 -1 -200 92 -36 209 210 709 682 1384 64 91 116 170
116 176 0 22 -61 10 -87 -17 -14 -16 -185 -227 -380 -471 -409 -512 -544 -671
-738 -871 -550 -566 -1050 -843 -1525 -844 -346 -1 -652 131 -898 387 -350
365 -440 908 -227 1372 133 291 403 478 628 436 181 -34 327 -181 344 -346 5
-52 8 -56 32 -56 47 0 54 12 48 77 -20 214 -184 355 -432 370 -372 22 -690
-279 -791 -747 -22 -104 -29 -317 -15 -434 35 -276 153 -524 341 -716 192
-196 449 -330 717 -376 142 -24 401 -15 538 19 150 38 266 81 409 153 425 212
851 588 1320 1165 127 155 147 177 119 129 -189 -323 -281 -550 -291 -711 -4
-71 -1 -93 16 -131 37 -85 146 -138 246 -119 57 11 161 72 251 149 84 72 180
180 471 527 510 609 865 972 1215 1240 55 43 102 76 104 74 2 -2 -21 -47 -51
-99 -166 -288 -373 -780 -469 -1113 -149 -519 -154 -963 -15 -1156 38 -51 70
-73 114 -74 48 -1 83 20 112 69 32 55 32 102 0 110 -35 8 -56 -7 -80 -57 -28
-58 -54 -62 -94 -13 -16 20 -43 73 -58 118 -26 75 -28 95 -32 266 -3 157 0
206 18 315 57 343 182 720 360 1092 102 212 160 314 293 516 100 153 109 170
99 192 -9 20 -19 25 -50 25 -33 0 -56 -12 -148 -81z"/>
        <path d="M14314 4237 c-4 -12 21 -188 42 -289 6 -29 31 -38 40 -15 4 12 -21
188 -42 290 -6 28 -31 37 -40 14z"/>
        <path d="M14370 3792 c0 -33 3 -107 7 -165 5 -95 8 -107 25 -107 16 0 18 9 18
88 0 49 -3 123 -6 165 -6 66 -10 77 -25 77 -16 0 -19 -8 -19 -58z"/>
        <path d="M6717 3528 c-8 -13 -42 -77 -76 -143 -109 -209 -185 -296 -353 -405
-89 -58 -192 -100 -244 -100 -13 0 -33 9 -44 20 -32 32 -26 95 20 217 47 126
51 160 16 169 -35 8 -62 -3 -86 -36 -21 -29 -21 -29 -40 -10 -28 28 -85 25
-151 -7 -107 -53 -277 -256 -295 -352 -8 -40 3 -61 39 -79 58 -29 157 23 298
155 l84 78 7 -62 c8 -78 28 -116 72 -137 93 -44 252 13 454 163 89 66 168 155
227 257 l39 67 9 -29 c22 -67 73 -112 158 -138 l38 -11 -76 -85 c-110 -124
-133 -162 -133 -228 0 -46 4 -58 29 -83 34 -34 67 -37 155 -14 70 18 239 104
356 180 l85 56 16 -39 c22 -50 58 -66 143 -60 49 3 82 13 142 43 44 22 82 41
86 43 4 2 0 -12 -9 -30 -22 -43 -22 -94 0 -116 26 -25 96 -19 157 14 28 15 93
67 145 116 52 48 98 88 102 88 5 0 9 -27 9 -59 3 -129 83 -177 225 -135 72 22
176 74 276 140 88 59 125 97 116 120 -10 27 -48 13 -120 -44 -97 -77 -184
-128 -263 -153 -79 -24 -122 -19 -138 17 -21 44 -13 92 35 216 51 131 51 151
-4 156 -29 3 -75 -28 -85 -58 -3 -10 -10 -8 -26 8 -49 49 -146 17 -267 -89
-90 -78 -245 -182 -313 -208 -29 -12 -70 -21 -92 -21 -49 0 -64 21 -49 74 8
31 14 36 39 36 33 0 37 6 64 75 37 99 33 124 -22 125 -15 0 -36 -18 -70 -62
-26 -35 -69 -87 -97 -117 -114 -124 -341 -260 -449 -269 -48 -4 -55 -2 -74 23
-51 64 -17 135 151 312 38 40 66 77 62 83 -3 5 -31 10 -61 10 -94 0 -136 36
-154 131 -9 48 -1 150 16 193 11 28 -62 21 -79 -6z m-901 -420 c-41 -87 -222
-258 -273 -258 -21 0 -15 32 19 90 37 65 188 219 238 243 33 15 35 15 38 -3 2
-10 -8 -43 -22 -72z m2219 43 c-24 -69 -42 -95 -122 -177 -71 -73 -142 -124
-174 -124 -16 0 -3 45 28 99 55 94 244 264 274 245 5 -2 2 -22 -6 -43z"/>
        <path d="M7500 3377 c-26 -13 -43 -65 -35 -103 10 -47 87 -37 118 16 23 38 21
66 -5 84 -27 19 -45 20 -78 3z"/>
        <path d="M11045 3381 c-12 -5 -23 -25 -31 -55 -11 -43 -10 -50 7 -67 27 -27
56 -24 90 10 39 39 41 92 4 109 -29 13 -41 14 -70 3z"/>
        <path d="M13887 2258 c-84 -145 -100 -215 -64 -283 39 -76 140 -135 230 -135
98 0 133 27 197 151 35 68 49 104 42 111 -7 7 -15 4 -23 -10 -13 -21 -17 -19
-180 66 -163 84 -167 88 -162 115 8 40 -12 33 -40 -15z m351 -214 c11 -9 -68
-132 -97 -151 -101 -68 -282 17 -305 143 -6 29 -1 50 28 111 l36 75 167 -88
c93 -48 170 -88 171 -90z"/>
        <path d="M13507 1657 l-116 -142 47 -42 c43 -39 82 -55 82 -35 0 5 -18 23 -40
41 -22 17 -40 35 -40 39 0 5 34 49 75 100 l76 92 69 -57 c39 -32 70 -60 70
-63 -1 -3 -16 -23 -35 -45 -31 -37 -36 -39 -56 -27 -13 9 -25 10 -31 4 -10
-10 80 -92 101 -92 16 0 13 30 -4 36 -22 9 -18 25 19 68 l33 39 66 -53 66 -53
-66 -81 c-36 -45 -70 -85 -74 -90 -4 -5 -22 3 -39 18 -32 26 -60 34 -60 17 0
-12 83 -81 96 -80 18 1 223 264 213 274 -6 6 -17 1 -31 -12 l-21 -22 -149 121
c-136 111 -147 122 -133 138 17 18 19 36 7 44 -5 3 -61 -59 -125 -137z"/>
        <path d="M13194 1305 c6 -23 3 -25 -24 -25 -17 0 -48 -9 -70 -20 -113 -58
-133 -208 -35 -254 46 -22 50 -21 144 24 93 45 139 50 166 20 74 -82 -72 -228
-164 -164 -39 28 -42 2 -5 -43 38 -45 60 -56 51 -24 -4 15 2 20 34 25 50 8
115 66 129 114 12 46 4 80 -28 115 -38 40 -89 37 -188 -13 -88 -45 -114 -46
-151 -4 -15 16 -23 38 -23 61 0 30 9 44 49 84 44 45 52 49 96 49 31 0 55 -6
67 -17 12 -11 22 -13 28 -7 7 7 -1 26 -25 57 -40 52 -61 61 -51 22z"/>
        <path d="M12568 887 c-65 -34 -118 -68 -118 -74 0 -19 15 -16 70 12 27 14 51
25 54 25 5 0 176 -323 176 -333 0 -4 -22 -18 -49 -32 -53 -26 -67 -40 -52 -50
12 -7 261 123 261 136 0 16 -29 10 -80 -16 l-49 -25 -85 164 c-48 90 -86 168
-86 173 0 5 23 20 50 33 46 21 68 50 38 50 -7 -1 -66 -29 -130 -63z"/>
        <path d="M10027 753 c-12 -11 -8 -21 12 -28 13 -4 24 -25 35 -73 10 -37 26
-84 36 -104 l19 -36 -39 -7 c-57 -10 -100 -53 -100 -100 0 -45 32 -100 68
-119 29 -15 216 -76 232 -76 21 0 9 28 -15 34 -14 4 -25 13 -25 22 0 9 25 92
55 184 l56 169 36 -6 c65 -11 32 19 -48 44 -88 27 -89 27 -89 9 0 -8 13 -17
30 -21 16 -4 32 -10 35 -15 4 -6 -39 -147 -48 -157 -2 -1 -25 4 -51 13 -64 22
-99 72 -122 172 -10 42 -20 80 -23 83 -10 11 -47 20 -54 12z m171 -289 c32 -9
60 -19 64 -23 7 -6 -37 -157 -49 -170 -2 -3 -35 5 -73 18 -107 34 -153 108
-97 158 40 37 72 41 155 17z"/>
        <path d="M12017 679 c-74 -17 -147 -67 -147 -99 0 -9 7 -38 16 -64 12 -35 13
-51 5 -59 -15 -15 -14 -27 4 -27 35 0 165 45 165 57 0 17 -14 16 -74 -2 -27
-8 -50 -14 -51 -13 -1 2 -10 27 -20 56 -20 61 -16 70 48 100 41 19 83 26 139
23 46 -2 103 -63 127 -133 27 -79 26 -123 -1 -178 -31 -60 -92 -93 -162 -87
-39 4 -54 10 -72 32 -29 36 -40 17 -24 -41 11 -40 40 -63 40 -31 0 8 20 12 68
12 77 0 118 19 164 76 42 52 49 132 18 223 -12 37 -33 79 -46 95 -43 51 -126
77 -197 60z"/>
        <path d="M10650 556 c0 -13 -3 -44 -6 -70 -6 -37 -4 -46 8 -46 11 0 18 15 23
55 7 63 -6 60 150 42 55 -7 100 -16 100 -22 0 -5 -4 -48 -9 -94 l-8 -83 -36 6
c-20 3 -47 6 -59 6 -19 0 -23 6 -23 30 0 17 -5 30 -10 30 -13 0 -17 -12 -24
-82 -5 -46 -3 -58 8 -58 8 0 17 11 20 25 7 27 25 31 86 19 l32 -7 -7 -76 c-4
-42 -10 -79 -13 -83 -6 -6 -115 3 -197 17 -29 5 -30 6 -26 56 2 40 0 50 -10
47 -12 -4 -35 -115 -26 -124 9 -9 344 -41 351 -34 8 8 -31 30 -52 30 -5 0 30
354 37 378 1 1 15 2 32 2 20 0 29 4 27 13 -3 8 -56 18 -154 29 -207 24 -214
23 -214 -6z"/>
        <path d="M11487 563 c-32 -8 -12 -28 26 -25 32 3 36 1 41 -25 8 -41 29 -323
25 -327 -2 -3 -62 77 -132 176 -124 173 -149 201 -166 182 -7 -8 4 -170 24
-357 5 -52 4 -57 -14 -57 -23 0 -36 -16 -21 -25 6 -4 42 -4 81 0 52 5 69 11
69 22 0 12 -9 14 -39 11 l-40 -3 -5 45 c-12 98 -28 302 -23 306 3 3 63 -76
133 -176 l129 -181 49 3 c57 3 74 25 24 30 l-33 3 -12 140 c-6 77 -14 161 -17
187 -4 42 -3 47 16 50 12 2 23 9 26 16 3 9 -13 12 -60 11 -34 -1 -71 -3 -81
-6z"/>
    </g>
</svg>
