<svg width="45" height="44" viewBox="0 0 45 44" fill="none" xmlns="http://www.w3.org/2000/svg">
    <path d="M12.0883 22.0256C10.8044 22.0256 9.76363 20.9766 9.76363 19.6825C9.76363 18.3884 10.8044 17.3393 12.0883 17.3393H25.9512C27.2351 17.3393 28.2759 18.3884 28.2759 19.6825C28.2759 20.9766 27.2351 22.0256 25.9512 22.0256H12.0883Z"
          fill="#BBA07D"/>
    <path fill-rule="evenodd" clip-rule="evenodd"
          d="M30.979 34.9263C27.736 37.4173 23.6868 38.8964 19.2948 38.8964C8.63857 38.8964 0 30.1891 0 19.4482C0 8.70724 8.63857 0 19.2948 0C29.951 0 38.5896 8.70724 38.5896 19.4482C38.5896 23.1767 37.5486 26.6601 35.7437 29.6193C35.7932 29.6639 35.8417 29.7102 35.8893 29.7581L43.9606 37.8936C45.3465 39.2905 45.3465 41.5554 43.9606 42.9523C42.5746 44.3492 40.3276 44.3492 38.9417 42.9523L30.979 34.9263ZM33.9402 19.4482C33.9402 27.6009 27.3832 34.21 19.2948 34.21C11.2063 34.21 4.64935 27.6009 4.64935 19.4482C4.64935 11.2954 11.2063 4.68631 19.2948 4.68631C27.3832 4.68631 33.9402 11.2954 33.9402 19.4482Z"
          fill="#BBA07D"/>
</svg>
